<?xml version="1.0" encoding="UTF-8"?>
<!-- Generator: Adobe Illustrator 24.0.1, SVG Export Plug-In . SVG Version: 6.00 Build 0)  -->
<svg version="1.1" id="Layer_1" xmlns="http://www.w3.org/2000/svg" xmlns:xlink="http://www.w3.org/1999/xlink" x="0px" y="0px" viewBox="0 0 479.6 166.8" style="enable-background:new 0 0 479.6 166.8;" xml:space="preserve">
<style type="text/css">
	.st0{fill:#1472B5;}
</style>
<g>
	<path class="st0" d="M306.4,61.7l7.3-0.4l-0.6-7.3c0-0.4,0-0.7,0-1.1c0-9.5,9-17.3,20-17.3c4.1,0,8,1,11.3,3l6.6,3.9l3.4-6.9   c6.5-13.1,21.6-21.5,38.7-21.5c23,0,41.7,15.4,41.7,34.4c0,1.3-0.1,2.6-0.2,3.7l-0.9,6.8l6.8,1.2c13,2.3,22.5,12.6,22.7,24.6h14.2   c-0.2-16.9-11.7-31.6-28.3-37C448.6,21.4,423.7,0,393.1,0c-19.8,0-37.9,9-47.9,23.4c-3.8-1.3-7.9-2-12.1-2   c-17.2,0-31.4,11.7-33.9,26.8C280.1,51.9,265.8,67,265.4,85h14.2C280.2,72.6,291.7,62.4,306.4,61.7z"/>
</g>
<g>
	<g>
		<path d="M0,95h51.8v14.7H18.3v14.4h29v14.2h-29v27.1H0V95z"/>
		<path d="M81,112.7c15.9,0,27,11.7,27,27.1c0,15.4-11.1,27-27,27c-15.9,0-26.9-11.6-26.9-27C54.1,124.5,65.1,112.7,81,112.7z     M81,154c7.9,0,10.2-7.6,10.2-14.2c0-6.5-2.4-14.3-10.2-14.3c-7.8,0-10.2,7.8-10.2,14.3C70.9,146.4,73.2,154,81,154z"/>
		<path d="M114.4,114.2h16.3v9h0.2c2.5-6.6,8.2-10,15.4-10c1.3,0,2.7,0.1,3.9,0.4v15.3c-2.3-0.7-4.1-1-6.4-1    c-8.3,0-12.6,5.7-12.6,12.1v25.3h-16.8V114.2z"/>
		<path d="M183.7,125.1h-10.3v23.3c0,4,2.4,4.9,6,4.9c1.5,0,2.9-0.2,4.3-0.2v12.3c-3.1,0.1-6.1,0.5-9.2,0.5    c-14.3,0-17.9-4.2-17.9-18v-22.8h-8.5v-10.8h8.5V98.7h16.8v15.5h10.3V125.1z"/>
		<path d="M205.6,107.8h-16.8V95h16.8V107.8z M188.8,114.2h16.8v51.1h-16.8V114.2z"/>
		<path class="st0" d="M261.9,120.1c-1.1-7.1-6.4-10.8-14.2-10.8c-11.8,0-16.4,10.3-16.4,20.9c0,10.5,4.5,20.9,16.4,20.9    c8.7,0,13.5-4.8,14.2-13h18.3c-1.1,18.2-14.3,28.8-32.1,28.8c-21.4,0-35.1-16.3-35.1-36.7s13.7-36.7,35.1-36.7    c15.3,0,31.6,9.7,32.1,26.6H261.9z"/>
		<path class="st0" d="M286.9,95h16.8v70.4h-16.8V95z"/>
		<path class="st0" d="M337,112.7c15.9,0,27,11.7,27,27.1c0,15.4-11.1,27-27,27c-15.9,0-26.9-11.6-26.9-27    C310.1,124.5,321.1,112.7,337,112.7z M337,154c7.9,0,10.2-7.6,10.2-14.2c0-6.5-2.4-14.3-10.2-14.3c-7.8,0-10.2,7.8-10.2,14.3    C326.8,146.4,329.2,154,337,154z"/>
		<path class="st0" d="M420.7,165.4h-16.3v-7h-0.2c-3.2,5.2-9.7,8.5-15.6,8.5c-14.7,0-18.9-8.5-18.9-21.9v-30.7h16.8v29.7    c0,6.8,2.9,9.2,8.3,9.2c3.5,0,9.2-2.4,9.2-11.4v-27.4h16.8V165.4z"/>
		<path class="st0" d="M479.6,165.4h-16v-5.9h-0.2c-3.4,4.9-8.1,7.4-14.1,7.4c-16.1,0-22.9-13.7-22.9-28.2    c0-13.3,7.1-25.9,21.6-25.9c6.2,0,11.1,2.4,14.6,7h0.2V95h16.8V165.4z M443.2,139.3c0,7,2.7,14.8,10.2,14.8c8.2,0,10-7.8,10-14.3    c0-7.4-2.7-14.2-10-14.2C445.9,125.6,443.2,132.7,443.2,139.3z"/>
	</g>
</g>
</svg>